<svg data-v-423bf9ae="" xmlns="http://www.w3.org/2000/svg" viewBox="0 0 477 90" class="iconLeftSlogan"><!----><!----><!----><g data-v-423bf9ae="" id="f44925fa-3764-4137-afb0-9663fa931d75" fill="black" transform="matrix(5.681817956043021,0,0,5.681817956043021,107.21589621088702,-16.53409097817812)"><path d="M0.49 13.30L4.83 13.30C6.96 13.30 8.33 12.53 8.33 10.58C8.33 8.93 7.15 8.20 5.80 8.02L5.80 7.99C7.11 7.73 7.88 6.92 7.88 5.84C7.88 5.07 7.57 4.49 7.01 4.12C6.47 3.75 5.66 3.61 4.54 3.61L0.49 3.61L0.49 4.02C1.72 4.10 1.75 4.13 1.75 4.91L1.75 12.00C1.75 12.78 1.72 12.81 0.49 12.89ZM3.14 11.73L3.14 8.33L4.14 8.33C5.88 8.33 6.83 9.20 6.83 10.68C6.83 12.36 5.68 12.81 4.48 12.81C3.36 12.81 3.14 12.60 3.14 11.73ZM3.14 7.84L3.14 4.80C3.14 4.20 3.18 4.10 4.27 4.10C5.29 4.10 6.41 4.48 6.41 5.92C6.41 7.29 5.53 7.84 4.07 7.84ZM9.56 11.48C9.56 12.53 10.26 13.47 11.58 13.47C12.39 13.47 13.22 12.92 13.66 12.63C13.86 13.15 14.08 13.47 14.57 13.47C15.09 13.47 15.69 13.31 16.23 13.05L16.14 12.71C15.95 12.75 15.64 12.78 15.43 12.73C15.18 12.67 14.94 12.40 14.94 11.52L14.94 8.13C14.94 7.32 14.76 6.27 12.64 6.27C11.06 6.27 9.81 7.10 9.81 7.87C9.81 8.32 10.33 8.53 10.60 8.53C10.89 8.53 10.98 8.37 11.05 8.13C11.35 7.10 11.93 6.76 12.49 6.76C13.03 6.76 13.68 7.04 13.68 8.16L13.68 8.75C13.33 9.11 11.97 9.46 10.86 9.81C9.86 10.12 9.56 10.82 9.56 11.48ZM10.98 11.28C10.98 10.63 11.28 10.29 12.07 10.00C12.63 9.79 13.37 9.52 13.68 9.32L13.68 11.30C13.68 12.43 12.81 12.73 12.26 12.73C11.40 12.73 10.98 12.11 10.98 11.28ZM16.65 13.30L20.06 13.30L20.06 12.89C19.07 12.82 19.01 12.80 19.01 12.08L19.01 8.81C19.01 8.46 19.04 8.26 19.15 8.04C19.45 7.49 20.08 7.03 20.82 7.03C21.77 7.03 22.29 7.56 22.29 8.78L22.29 12.08C22.29 12.80 22.25 12.82 21.24 12.89L21.24 13.30L24.65 13.30L24.65 12.89C23.66 12.82 23.60 12.80 23.60 12.08L23.60 8.50C23.60 7.08 22.83 6.27 21.55 6.27C20.51 6.27 19.87 6.78 19.00 7.34L18.80 6.27L16.72 6.62L16.72 6.97L17.25 7.04C17.61 7.10 17.70 7.17 17.70 7.67L17.70 12.08C17.70 12.80 17.65 12.82 16.65 12.89ZM25.14 13.30L28.56 13.30L28.56 12.89C27.57 12.82 27.51 12.80 27.51 12.08L27.51 9.74L27.54 9.74C28.11 10.65 29.11 11.87 29.83 12.61C30.35 13.13 30.90 13.30 31.35 13.33L32.40 13.37L32.40 12.98C31.98 12.87 31.63 12.66 31.19 12.22C30.32 11.37 29.23 10.04 28.70 9.28C28.63 9.18 28.60 9.11 28.74 8.96C29.41 8.19 29.86 7.78 30.34 7.43C30.81 7.08 31.16 6.92 31.98 6.83L31.98 6.44L30.53 6.44C30.06 6.44 29.93 6.51 29.65 6.85C29.25 7.34 27.86 9.07 27.54 9.55L27.51 9.55L27.51 3.00L27.41 2.91L25.21 3.26L25.21 3.61L25.75 3.67C26.11 3.71 26.19 3.78 26.19 4.31L26.19 12.08C26.19 12.80 26.15 12.82 25.14 12.89ZM35.84 13.30L39.54 13.30L39.54 12.89C38.95 12.84 38.63 12.84 38.53 12.67C38.49 12.61 38.49 12.60 38.49 12.00L38.49 8.74L39.45 8.74C40.29 8.74 40.94 9.00 41.17 9.95C41.27 10.35 41.43 11.45 41.58 12.10C41.79 12.99 42.32 13.30 43.15 13.30L44.28 13.30L44.28 12.89C43.19 12.78 42.97 12.00 42.84 11.05C42.67 9.80 42.42 8.86 40.94 8.50L40.94 8.47C42.25 8.22 43.22 7.34 43.22 6.01C43.22 4.66 42.38 3.61 39.93 3.61L35.84 3.61L35.84 4.02C37.07 4.10 37.10 4.13 37.10 4.91L37.10 12.00C37.10 12.78 37.07 12.81 35.84 12.89ZM38.49 8.25L38.49 4.80C38.49 4.21 38.58 4.10 39.51 4.10C40.54 4.10 41.72 4.48 41.72 6.13C41.72 7.60 40.95 8.25 39.59 8.25ZM44.77 9.87C44.77 12.14 45.88 13.47 48.13 13.47C50.39 13.47 51.49 12.14 51.49 9.87C51.49 7.60 50.39 6.27 48.13 6.27C45.88 6.27 44.77 7.60 44.77 9.87ZM46.23 9.87C46.23 7.94 46.84 6.76 48.13 6.76C49.42 6.76 50.04 7.94 50.04 9.87C50.04 11.80 49.42 12.98 48.13 12.98C46.84 12.98 46.23 11.80 46.23 9.87ZM52.85 9.87C52.85 12.14 53.96 13.47 56.21 13.47C58.46 13.47 59.57 12.14 59.57 9.87C59.57 7.60 58.46 6.27 56.21 6.27C53.96 6.27 52.85 7.60 52.85 9.87ZM54.31 9.87C54.31 7.94 54.92 6.76 56.21 6.76C57.50 6.76 58.11 7.94 58.11 9.87C58.11 11.80 57.50 12.98 56.21 12.98C54.92 12.98 54.31 11.80 54.31 9.87ZM60.68 7.00L61.68 7.00L61.68 11.87C61.68 13.30 62.75 13.47 63.24 13.47C63.95 13.47 64.62 13.10 65.03 12.85L64.92 12.56C64.58 12.70 64.27 12.74 63.92 12.74C63.45 12.74 63.00 12.40 63.00 11.34L63.00 7.00L64.81 7.00L64.81 6.44L63.00 6.44L63.00 4.68L62.59 4.68L61.74 6.44L60.68 6.44Z"></path></g><!----><g data-v-423bf9ae="" id="2340d6f4-a0d0-496d-9809-5d7153b9da6b" transform="matrix(2.8125,0,0,2.8125,0,0)" stroke="none" fill="black"><path d="M0 16.024L15.976 32 32 15.976 16.024 0 0 16.024zm15.989 7.323l-7.336-7.336 14.694-.022-7.358 7.358z"></path></g><!----><g data-v-423bf9ae="" id="7482b3ba-c3b2-4e17-bac3-c3bb56adf644" fill="black" transform="matrix(0.9156453555202325,0,0,0.9156453555202325,109.52386180818328,57.49113126743725)"><path d="M3.54 12.41L0.52 12.41L0.52 11.87L0.66 11.87L0.66 11.87Q1.24 11.87 1.36 11.77L1.36 11.77L1.36 11.77Q1.48 11.68 1.50 11.21L1.50 11.21L1.63 4.38L1.63 4.38Q1.63 4.35 1.63 4.28L1.63 4.28L1.63 4.28Q1.64 4.21 1.64 4.17L1.64 4.17L1.64 4.01L1.64 4.01Q1.64 3.76 1.57 3.71L1.57 3.71L1.57 3.71Q1.47 3.64 1.24 3.64L1.24 3.64L0.53 3.64L0.52 3.08L2.63 3.08L5.82 10.55L8.96 3.08L11.20 3.08L11.20 3.64L10.73 3.64L10.73 3.64Q10.27 3.64 10.15 3.71L10.15 3.71L10.15 3.71Q9.99 3.79 9.99 4.08L9.99 4.08L9.99 11.22L9.99 11.22Q9.99 11.68 10.11 11.77L10.11 11.77L10.11 11.77Q10.22 11.87 10.85 11.87L10.85 11.87L11.13 11.87L11.14 12.41L7.75 12.41L7.72 11.87L8.00 11.87L8.00 11.87Q8.62 11.87 8.74 11.77L8.74 11.77L8.74 11.77Q8.86 11.66 8.86 11.25L8.86 11.25L8.86 4.83L6.71 9.91L5.85 12.02L5.85 12.02Q5.71 12.37 5.67 12.44L5.67 12.44L5.67 12.44Q5.63 12.51 5.56 12.51L5.56 12.51L5.56 12.51Q5.46 12.51 5.01 11.52L5.01 11.52L2.20 5.01L2.14 11.39L2.14 11.39Q2.14 11.74 2.34 11.80L2.34 11.80L2.34 11.80Q2.58 11.87 3.54 11.87L3.54 11.87L3.54 12.41ZM18.88 12.41L18.87 11.87L19.04 11.87L19.04 11.87Q19.43 11.87 19.56 11.73L19.56 11.73L19.56 11.73Q19.68 11.57 20.02 10.83L20.02 10.83L20.92 8.82L21.50 7.53L21.50 7.53Q21.77 6.97 21.81 6.86L21.81 6.86L21.81 6.86Q21.88 6.70 21.93 6.60L21.93 6.60L21.93 6.60Q21.98 6.51 21.99 6.45L21.99 6.45L22.09 6.21L23.52 2.74L23.81 2.74L23.81 2.74Q24.66 4.98 26.85 10.25L26.85 10.25L26.85 10.25Q27.30 11.34 27.49 11.64L27.49 11.64L27.49 11.64Q27.63 11.87 28.07 11.87L28.07 11.87L28.28 11.87L28.27 12.41L25.07 12.41L25.09 11.87L25.50 11.87L25.50 11.87Q26.12 11.87 26.12 11.70L26.12 11.70L26.12 11.70Q26.12 11.63 25.98 11.27L25.98 11.27L24.94 8.72L21.70 8.72L20.59 11.18L20.59 11.18Q20.45 11.50 20.45 11.63L20.45 11.63L20.45 11.63Q20.45 11.79 20.55 11.83L20.55 11.83L20.55 11.83Q20.64 11.87 21.03 11.87L21.03 11.87L21.60 11.87L21.60 12.41L18.88 12.41ZM23.38 4.79L21.96 8.10L24.71 8.10L23.38 4.79ZM36.60 3.64L36.01 3.64L36.01 3.08L39.51 3.08L39.51 3.64L39.07 3.64L39.07 3.64Q38.66 3.64 38.56 3.73L38.56 3.73L38.56 3.73Q38.45 3.84 38.45 4.28L38.45 4.28L38.45 7.50L42.54 4.18L42.54 4.18Q42.89 3.89 42.89 3.77L42.89 3.77L42.89 3.77Q42.89 3.64 42.25 3.64L42.25 3.64L41.70 3.64L41.67 3.08L45.03 3.08L45.03 3.64L44.67 3.64L44.67 3.64Q44.24 3.64 44.02 3.76L44.02 3.76L44.02 3.76Q43.85 3.86 42.97 4.55L42.97 4.55L39.81 7.08L44.04 11.49L44.04 11.49Q44.40 11.87 44.64 11.87L44.64 11.87L45.45 11.87L45.42 12.41L43.22 12.41L38.96 7.74L38.45 8.16L38.45 11.22L38.45 11.22Q38.45 11.70 38.62 11.79L38.62 11.79L38.62 11.79Q38.79 11.87 39.55 11.87L39.55 11.87L39.86 11.87L39.86 12.41L36.28 12.41L36.26 11.87L36.64 11.87L36.64 11.87Q37.15 11.87 37.23 11.79L37.23 11.79L37.23 11.79Q37.32 11.70 37.32 11.25L37.32 11.25L37.32 4.14L37.32 4.14Q37.32 3.77 37.21 3.71L37.21 3.71L37.21 3.71Q37.11 3.64 36.60 3.64L36.60 3.64ZM53.20 3.64L53.18 3.08L60.40 3.08L60.40 3.08Q60.41 4.14 60.46 5.28L60.46 5.28L59.92 5.30L59.92 5.30Q59.90 4.66 59.85 4.25L59.85 4.25L59.85 4.25Q59.81 3.89 59.75 3.80L59.75 3.80L59.75 3.80Q59.70 3.71 59.58 3.69L59.58 3.69L59.58 3.69Q59.49 3.68 58.90 3.68L58.90 3.68L56.52 3.68L56.52 3.68Q55.97 3.68 55.83 3.77L55.83 3.77L55.83 3.77Q55.71 3.86 55.71 4.33L55.71 4.33L55.71 6.28L55.71 6.28Q55.71 6.69 55.76 6.76L55.76 6.76L55.76 6.76Q55.83 6.84 56.17 6.84L56.17 6.84L58.28 6.84L58.28 6.84Q58.65 6.84 58.73 6.73L58.73 6.73L58.73 6.73Q58.81 6.63 58.82 6.14L58.82 6.14L58.82 5.61L59.33 5.63L59.33 8.97L58.82 8.97L58.82 8.24L58.82 8.24Q58.82 7.66 58.74 7.57L58.74 7.57L58.74 7.57Q58.66 7.46 58.31 7.46L58.31 7.46L56.21 7.46L56.21 7.46Q55.88 7.46 55.79 7.54L55.79 7.54L55.79 7.54Q55.71 7.63 55.71 7.89L55.71 7.89L55.71 11.20L55.71 11.20Q55.71 11.57 55.79 11.67L55.79 11.67L55.79 11.67Q55.88 11.77 56.15 11.77L56.15 11.77L56.15 11.77Q59.07 11.75 59.60 11.69L59.60 11.69L59.60 11.69Q60.12 11.63 60.20 11.38L60.20 11.38L60.20 11.36L60.21 11.35L60.44 10.17L60.92 10.25L60.57 12.41L53.46 12.41L53.46 11.87L53.83 11.87L53.83 11.87Q54.39 11.87 54.48 11.80L54.48 11.80L54.48 11.80Q54.57 11.72 54.57 11.33L54.57 11.33L54.57 4.24L54.57 4.24Q54.57 3.82 54.42 3.73L54.42 3.73L54.42 3.73Q54.25 3.64 53.59 3.64L53.59 3.64L53.20 3.64ZM78.76 3.64L78.36 3.64L78.39 3.08L81.48 3.08L81.48 3.08Q83.23 3.08 84.01 3.75L84.01 3.75L84.01 3.75Q84.78 4.42 84.77 5.37L84.77 5.37L84.77 5.37Q84.77 6.08 84.24 6.60L84.24 6.60L84.24 6.60Q83.68 7.14 82.98 7.35L82.98 7.35L82.98 7.35Q84.06 7.57 84.59 8.34L84.59 8.34L84.59 8.34Q85.11 9.08 85.11 10.01L85.11 10.01L85.11 10.01Q85.11 11.01 84.48 11.59L84.48 11.59L84.48 11.59Q83.88 12.13 82.93 12.28L82.93 12.28L82.93 12.28Q82.00 12.41 80.46 12.41L80.46 12.41L78.48 12.41L78.48 11.87L78.89 11.87L78.89 11.87Q79.26 11.87 79.37 11.80L79.37 11.80L79.37 11.80Q79.48 11.73 79.48 11.46L79.48 11.46L79.48 4.14L79.48 4.14Q79.48 3.81 79.33 3.72L79.33 3.72L79.33 3.72Q79.19 3.64 78.76 3.64L78.76 3.64ZM80.59 7.59L80.59 7.59L80.62 11.35L80.62 11.35Q80.62 11.63 80.78 11.71L80.78 11.71L80.78 11.71Q80.95 11.80 81.53 11.80L81.53 11.80L81.53 11.80Q83.78 11.80 83.78 9.91L83.78 9.91L83.78 9.91Q83.78 9.22 83.46 8.73L83.46 8.73L83.46 8.73Q83.15 8.24 82.62 8.02L82.62 8.02L82.62 8.02Q82.03 7.75 81.59 7.68L81.59 7.68L81.59 7.68Q81.12 7.59 80.59 7.59ZM80.62 4.01L80.62 7.19L81.99 7.19L81.99 7.19Q82.65 7.19 83.06 6.66L83.06 6.66L83.06 6.66Q83.47 6.15 83.47 5.54L83.47 5.54L83.47 5.54Q83.47 4.85 82.89 4.27L82.89 4.27L82.89 4.27Q82.31 3.69 81.03 3.69L81.03 3.69L81.03 3.69Q80.62 3.69 80.62 4.01L80.62 4.01ZM93.17 12.41L93.15 11.87L93.32 11.87L93.32 11.87Q93.71 11.87 93.84 11.73L93.84 11.73L93.84 11.73Q93.97 11.57 94.30 10.83L94.30 10.83L95.21 8.82L95.79 7.53L95.79 7.53Q96.05 6.97 96.09 6.86L96.09 6.86L96.09 6.86Q96.16 6.70 96.21 6.60L96.21 6.60L96.21 6.60Q96.26 6.51 96.28 6.45L96.28 6.45L96.37 6.21L97.80 2.74L98.10 2.74L98.10 2.74Q98.95 4.98 101.14 10.25L101.14 10.25L101.14 10.25Q101.59 11.34 101.78 11.64L101.78 11.64L101.78 11.64Q101.92 11.87 102.35 11.87L102.35 11.87L102.57 11.87L102.55 12.41L99.36 12.41L99.37 11.87L99.79 11.87L99.79 11.87Q100.41 11.87 100.41 11.70L100.41 11.70L100.41 11.70Q100.41 11.63 100.27 11.27L100.27 11.27L99.23 8.72L95.98 8.72L94.88 11.18L94.88 11.18Q94.74 11.50 94.74 11.63L94.74 11.63L94.74 11.63Q94.74 11.79 94.83 11.83L94.83 11.83L94.83 11.83Q94.93 11.87 95.31 11.87L95.31 11.87L95.89 11.87L95.89 12.41L93.17 12.41ZM97.67 4.79L96.25 8.10L98.99 8.10L97.67 4.79ZM110.31 3.64L110.30 3.08L112.47 3.08L118.21 10.48L118.21 4.14L118.21 4.14Q118.21 3.81 118.05 3.72L118.05 3.72L118.05 3.72Q117.90 3.64 117.44 3.64L117.44 3.64L116.95 3.64L116.98 3.08L119.96 3.08L119.96 3.64L119.64 3.64L119.64 3.64Q119.17 3.64 119.02 3.75L119.02 3.75L119.02 3.75Q118.87 3.86 118.87 4.25L118.87 4.25L118.87 12.32L118.87 12.47L118.87 12.47Q118.87 12.52 118.86 12.57L118.86 12.57L118.86 12.57Q118.84 12.61 118.81 12.64L118.81 12.64L118.81 12.64Q118.79 12.65 118.74 12.65L118.74 12.65L118.55 12.65L118.49 12.65L118.46 12.65L118.43 12.64L118.43 12.64Q118.41 12.64 118.39 12.63L118.39 12.63L118.39 12.63Q118.38 12.61 118.38 12.60L118.38 12.60L118.38 12.60Q118.38 12.58 118.36 12.57L118.36 12.57L118.36 12.57Q118.34 12.54 118.31 12.50L118.31 12.50L118.31 12.50Q118.30 12.48 118.28 12.45L118.28 12.45L118.28 12.45Q118.25 12.41 118.24 12.40L118.24 12.40L112.14 4.56L112.21 11.22L112.21 11.22Q112.21 11.67 112.37 11.77L112.37 11.77L112.37 11.77Q112.53 11.87 113.24 11.87L113.24 11.87L113.48 11.87L113.48 12.41L110.54 12.41L110.54 11.87L110.96 11.87L110.96 11.87Q111.34 11.87 111.45 11.76L111.45 11.76L111.45 11.76Q111.54 11.66 111.55 11.25L111.55 11.25L111.55 3.80L111.41 3.64L110.31 3.64ZM128.28 3.64L127.70 3.64L127.70 3.08L131.20 3.08L131.20 3.64L130.75 3.64L130.75 3.64Q130.35 3.64 130.25 3.73L130.25 3.73L130.25 3.73Q130.14 3.84 130.14 4.28L130.14 4.28L130.14 7.50L134.22 4.18L134.22 4.18Q134.57 3.89 134.57 3.77L134.57 3.77L134.57 3.77Q134.57 3.64 133.93 3.64L133.93 3.64L133.38 3.64L133.36 3.08L136.71 3.08L136.71 3.64L136.35 3.64L136.35 3.64Q135.92 3.64 135.71 3.76L135.71 3.76L135.71 3.76Q135.54 3.86 134.65 4.55L134.65 4.55L131.49 7.08L135.72 11.49L135.72 11.49Q136.08 11.87 136.32 11.87L136.32 11.87L137.14 11.87L137.11 12.41L134.91 12.41L130.65 7.74L130.14 8.16L130.14 11.22L130.14 11.22Q130.14 11.70 130.30 11.79L130.30 11.79L130.30 11.79Q130.47 11.87 131.24 11.87L131.24 11.87L131.54 11.87L131.54 12.41L127.96 12.41L127.95 11.87L128.32 11.87L128.32 11.87Q128.83 11.87 128.92 11.79L128.92 11.79L128.92 11.79Q129.00 11.70 129.00 11.25L129.00 11.25L129.00 4.14L129.00 4.14Q129.00 3.77 128.90 3.71L128.90 3.71L128.90 3.71Q128.79 3.64 128.28 3.64L128.28 3.64ZM154.82 8.24L154.82 8.24L154.82 8.24Q154.82 6.92 155.44 5.72L155.44 5.72L155.44 5.72Q156.05 4.52 157.28 3.72L157.28 3.72L157.28 3.72Q158.52 2.92 160.14 2.92L160.14 2.92L160.14 2.92Q161.41 2.92 163.00 3.57L163.00 3.57L163.00 2.86L163.56 2.86L163.65 5.92L163.11 5.93L163.01 4.48L163.01 4.48Q162.93 4.41 162.65 4.24L162.65 4.24L162.65 4.24Q162.40 4.07 161.65 3.83L161.65 3.83L161.65 3.83Q160.92 3.60 160.02 3.60L160.02 3.60L160.02 3.60Q159.04 3.60 158.28 3.93L158.28 3.93L158.28 3.93Q157.51 4.27 157.04 4.83L157.04 4.83L157.04 4.83Q156.58 5.39 156.33 6.08L156.33 6.08L156.33 6.08Q156.08 6.78 156.08 7.57L156.08 7.57L156.08 7.57Q156.08 9.33 157.20 10.69L157.20 10.69L157.20 10.69Q158.32 12.05 160.18 12.05L160.18 12.05L160.18 12.05Q160.88 12.05 161.51 11.85L161.51 11.85L161.51 11.85Q162.14 11.66 162.36 11.48L162.36 11.48L162.60 11.28L162.60 8.78L160.94 8.78L160.92 8.23L164.79 8.23L164.80 8.78L163.73 8.78L163.73 11.64L162.95 11.98L162.95 11.98Q162.25 12.30 162.03 12.39L162.03 12.39L162.03 12.39Q161.77 12.48 161.13 12.61L161.13 12.61L161.13 12.61Q160.52 12.74 159.91 12.74L159.91 12.74L159.91 12.74Q158.61 12.74 157.64 12.37L157.64 12.37L157.64 12.37Q156.65 12.00 156.04 11.36L156.04 11.36L156.04 11.36Q155.45 10.76 155.13 9.94L155.13 9.94L155.13 9.94Q154.82 9.15 154.82 8.24ZM172.87 3.64L172.48 3.64L172.50 3.08L175.72 3.08L175.72 3.08Q176.85 3.08 177.45 3.21L177.45 3.21L177.45 3.21Q178.10 3.37 178.56 3.75L178.56 3.75L178.56 3.75Q179.57 4.57 179.57 5.71L179.57 5.71L179.57 5.71Q179.57 6.43 179.09 7.04L179.09 7.04L179.09 7.04Q178.60 7.66 177.57 7.92L177.57 7.92L180.26 11.49L180.26 11.49Q180.56 11.87 180.86 11.87L180.86 11.87L181.46 11.87L181.49 12.41L179.46 12.41L176.46 8.10L176.29 8.10L176.29 8.10Q176.25 8.10 176.20 8.11L176.20 8.11L176.20 8.11Q176.14 8.11 176.13 8.11L176.13 8.11L176.13 8.11Q175.25 8.11 174.85 8.03L174.85 8.03L174.85 11.46L174.85 11.46Q174.85 11.76 174.99 11.81L174.99 11.81L174.99 11.81Q175.12 11.87 175.82 11.87L175.82 11.87L176.53 11.87L176.50 12.41L172.78 12.41L172.78 11.87L173.10 11.87L173.10 11.87Q173.56 11.87 173.63 11.81L173.63 11.81L173.63 11.81Q173.71 11.74 173.71 11.46L173.71 11.46L173.71 4.14L173.71 4.14Q173.71 3.82 173.52 3.73L173.52 3.73L173.52 3.73Q173.30 3.64 172.87 3.64L172.87 3.64ZM174.85 4.28L174.85 7.57L174.85 7.57Q175.03 7.70 175.75 7.71L175.75 7.71L175.75 7.71Q177.02 7.71 177.60 7.27L177.60 7.27L177.60 7.27Q178.19 6.84 178.19 5.92L178.19 5.92L178.19 5.92Q178.19 4.92 177.41 4.27L177.41 4.27L177.41 4.27Q176.65 3.64 175.27 3.64L175.27 3.64L175.27 3.64Q175.02 3.64 174.94 3.75L174.94 3.75L174.94 3.75Q174.86 3.84 174.85 4.28L174.85 4.28ZM189.25 3.64L189.24 3.08L196.45 3.08L196.45 3.08Q196.46 4.14 196.52 5.28L196.52 5.28L195.97 5.30L195.97 5.30Q195.96 4.66 195.90 4.25L195.90 4.25L195.90 4.25Q195.86 3.89 195.81 3.80L195.81 3.80L195.81 3.80Q195.75 3.71 195.64 3.69L195.64 3.69L195.64 3.69Q195.54 3.68 194.95 3.68L194.95 3.68L192.58 3.68L192.58 3.68Q192.03 3.68 191.88 3.77L191.88 3.77L191.88 3.77Q191.76 3.86 191.76 4.33L191.76 4.33L191.76 6.28L191.76 6.28Q191.76 6.69 191.82 6.76L191.82 6.76L191.82 6.76Q191.88 6.84 192.23 6.84L192.23 6.84L194.34 6.84L194.34 6.84Q194.70 6.84 194.78 6.73L194.78 6.73L194.78 6.73Q194.87 6.63 194.87 6.14L194.87 6.14L194.87 5.61L195.38 5.63L195.38 8.97L194.87 8.97L194.87 8.24L194.87 8.24Q194.87 7.66 194.80 7.57L194.80 7.57L194.80 7.57Q194.71 7.46 194.37 7.46L194.37 7.46L192.27 7.46L192.27 7.46Q191.93 7.46 191.85 7.54L191.85 7.54L191.85 7.54Q191.76 7.63 191.76 7.89L191.76 7.89L191.76 11.20L191.76 11.20Q191.76 11.57 191.85 11.67L191.85 11.67L191.85 11.67Q191.93 11.77 192.21 11.77L192.21 11.77L192.21 11.77Q195.13 11.75 195.65 11.69L195.65 11.69L195.65 11.69Q196.17 11.63 196.25 11.38L196.25 11.38L196.26 11.36L196.27 11.35L196.49 10.17L196.97 10.25L196.62 12.41L189.52 12.41L189.52 11.87L189.89 11.87L189.89 11.87Q190.45 11.87 190.53 11.80L190.53 11.80L190.53 11.80Q190.63 11.72 190.63 11.33L190.63 11.33L190.63 4.24L190.63 4.24Q190.63 3.82 190.48 3.73L190.48 3.73L190.48 3.73Q190.31 3.64 189.65 3.64L189.65 3.64L189.25 3.64ZM204.86 12.41L204.85 11.87L205.02 11.87L205.02 11.87Q205.41 11.87 205.54 11.73L205.54 11.73L205.54 11.73Q205.66 11.57 205.99 10.83L205.99 10.83L206.90 8.82L207.48 7.53L207.48 7.53Q207.74 6.97 207.79 6.86L207.79 6.86L207.79 6.86Q207.85 6.70 207.90 6.60L207.90 6.60L207.90 6.60Q207.96 6.51 207.97 6.45L207.97 6.45L208.07 6.21L209.49 2.74L209.79 2.74L209.79 2.74Q210.64 4.98 212.83 10.25L212.83 10.25L212.83 10.25Q213.28 11.34 213.47 11.64L213.47 11.64L213.47 11.64Q213.61 11.87 214.05 11.87L214.05 11.87L214.26 11.87L214.25 12.41L211.05 12.41L211.07 11.87L211.48 11.87L211.48 11.87Q212.10 11.87 212.10 11.70L212.10 11.70L212.10 11.70Q212.10 11.63 211.96 11.27L211.96 11.27L210.92 8.72L207.68 8.72L206.57 11.18L206.57 11.18Q206.43 11.50 206.43 11.63L206.43 11.63L206.43 11.63Q206.43 11.79 206.53 11.83L206.53 11.83L206.53 11.83Q206.62 11.87 207.01 11.87L207.01 11.87L207.58 11.87L207.58 12.41L204.86 12.41ZM209.36 4.79L207.94 8.10L210.68 8.10L209.36 4.79ZM222.27 5.35L221.77 5.33L221.77 5.33Q221.89 4.17 221.98 3.08L221.98 3.08L230.06 3.08L230.06 3.08Q229.97 4.13 229.95 4.53L229.95 4.53L229.95 4.53Q229.91 5.26 229.89 5.32L229.89 5.32L229.39 5.30L229.39 5.30Q229.47 4.34 229.47 4.16L229.47 4.16L229.47 4.16Q229.47 3.88 229.33 3.79L229.33 3.79L229.33 3.79Q229.15 3.69 228.75 3.69L228.75 3.69L227.14 3.69L227.14 3.69Q226.64 3.69 226.52 3.79L226.52 3.79L226.52 3.79Q226.42 3.87 226.41 4.36L226.41 4.36L226.41 11.22L226.41 11.22Q226.41 11.66 226.56 11.76L226.56 11.76L226.56 11.76Q226.71 11.87 227.23 11.87L227.23 11.87L227.79 11.87L227.80 12.41L224.11 12.40L224.11 11.87L224.33 11.87L224.33 11.87Q225.00 11.87 225.14 11.79L225.14 11.79L225.14 11.79Q225.29 11.70 225.29 11.28L225.29 11.28L225.29 4.48L225.29 4.48Q225.29 3.92 225.19 3.80L225.19 3.80L225.19 3.80Q225.09 3.69 224.66 3.69L224.66 3.69L223.19 3.69L223.19 3.69Q223.01 3.69 222.94 3.71L222.94 3.71L222.94 3.71Q222.87 3.72 222.76 3.72L222.76 3.72L222.76 3.72Q222.74 3.72 222.62 3.79L222.62 3.79L222.62 3.79Q222.54 3.84 222.51 3.86L222.51 3.86L222.51 3.86Q222.48 3.88 222.44 3.99L222.44 3.99L222.44 3.99Q222.41 4.05 222.39 4.14L222.39 4.14L222.39 4.14Q222.36 4.21 222.34 4.36L222.34 4.36L222.34 4.36Q222.31 4.59 222.31 4.61L222.31 4.61L222.31 4.61Q222.31 4.80 222.30 4.95L222.30 4.95L222.30 4.95Q222.30 5.02 222.29 5.15L222.29 5.15L222.29 5.15Q222.28 5.29 222.27 5.35L222.27 5.35ZM247.38 12.41L247.37 11.87L247.54 11.87L247.54 11.87Q247.93 11.87 248.06 11.73L248.06 11.73L248.06 11.73Q248.18 11.57 248.51 10.83L248.51 10.83L249.42 8.82L250.00 7.53L250.00 7.53Q250.26 6.97 250.30 6.86L250.30 6.86L250.30 6.86Q250.37 6.70 250.42 6.60L250.42 6.60L250.42 6.60Q250.48 6.51 250.49 6.45L250.49 6.45L250.58 6.21L252.01 2.74L252.31 2.74L252.31 2.74Q253.16 4.98 255.35 10.25L255.35 10.25L255.35 10.25Q255.80 11.34 255.99 11.64L255.99 11.64L255.99 11.64Q256.13 11.87 256.57 11.87L256.57 11.87L256.78 11.87L256.76 12.41L253.57 12.41L253.59 11.87L254.00 11.87L254.00 11.87Q254.62 11.87 254.62 11.70L254.62 11.70L254.62 11.70Q254.62 11.63 254.48 11.27L254.48 11.27L253.44 8.72L250.20 8.72L249.09 11.18L249.09 11.18Q248.95 11.50 248.95 11.63L248.95 11.63L248.95 11.63Q248.95 11.79 249.05 11.83L249.05 11.83L249.05 11.83Q249.14 11.87 249.53 11.87L249.53 11.87L250.10 11.87L250.10 12.41L247.38 12.41ZM251.88 4.79L250.46 8.10L253.20 8.10L251.88 4.79ZM264.89 8.24L264.89 8.24L264.89 8.24Q264.89 6.92 265.51 5.72L265.51 5.72L265.51 5.72Q266.12 4.52 267.35 3.72L267.35 3.72L267.35 3.72Q268.59 2.92 270.21 2.92L270.21 2.92L270.21 2.92Q271.48 2.92 273.07 3.57L273.07 3.57L273.07 2.86L273.63 2.86L273.72 5.92L273.18 5.93L273.08 4.48L273.08 4.48Q273 4.41 272.73 4.24L272.73 4.24L272.73 4.24Q272.47 4.07 271.72 3.83L271.72 3.83L271.72 3.83Q271.00 3.60 270.09 3.60L270.09 3.60L270.09 3.60Q269.12 3.60 268.35 3.93L268.35 3.93L268.35 3.93Q267.58 4.27 267.11 4.83L267.11 4.83L267.11 4.83Q266.65 5.39 266.40 6.08L266.40 6.08L266.40 6.08Q266.15 6.78 266.15 7.57L266.15 7.57L266.15 7.57Q266.15 9.33 267.27 10.69L267.27 10.69L267.27 10.69Q268.39 12.05 270.25 12.05L270.25 12.05L270.25 12.05Q270.95 12.05 271.58 11.85L271.58 11.85L271.58 11.85Q272.21 11.66 272.43 11.48L272.43 11.48L272.67 11.28L272.67 8.78L271.01 8.78L271.00 8.23L274.86 8.23L274.87 8.78L273.81 8.78L273.81 11.64L273.02 11.98L273.02 11.98Q272.32 12.30 272.10 12.39L272.10 12.39L272.10 12.39Q271.84 12.48 271.20 12.61L271.20 12.61L271.20 12.61Q270.59 12.74 269.99 12.74L269.99 12.74L269.99 12.74Q268.69 12.74 267.72 12.37L267.72 12.37L267.72 12.37Q266.72 12.00 266.11 11.36L266.11 11.36L266.11 11.36Q265.52 10.76 265.20 9.94L265.20 9.94L265.20 9.94Q264.89 9.15 264.89 8.24ZM282.63 12.41L282.61 11.87L282.78 11.87L282.78 11.87Q283.17 11.87 283.30 11.73L283.30 11.73L283.30 11.73Q283.42 11.57 283.76 10.83L283.76 10.83L284.67 8.82L285.24 7.53L285.24 7.53Q285.51 6.97 285.55 6.86L285.55 6.86L285.55 6.86Q285.62 6.70 285.67 6.60L285.67 6.60L285.67 6.60Q285.72 6.51 285.74 6.45L285.74 6.45L285.83 6.21L287.26 2.74L287.55 2.74L287.55 2.74Q288.41 4.98 290.60 10.25L290.60 10.25L290.60 10.25Q291.05 11.34 291.24 11.64L291.24 11.64L291.24 11.64Q291.38 11.87 291.81 11.87L291.81 11.87L292.02 11.87L292.01 12.41L288.82 12.41L288.83 11.87L289.25 11.87L289.25 11.87Q289.86 11.87 289.86 11.70L289.86 11.70L289.86 11.70Q289.86 11.63 289.73 11.27L289.73 11.27L288.69 8.72L285.44 8.72L284.33 11.18L284.33 11.18Q284.20 11.50 284.20 11.63L284.20 11.63L284.20 11.63Q284.20 11.79 284.29 11.83L284.29 11.83L284.29 11.83Q284.39 11.87 284.77 11.87L284.77 11.87L285.35 11.87L285.35 12.41L282.63 12.41ZM287.12 4.79L285.71 8.10L288.45 8.10L287.12 4.79ZM300.34 3.64L299.76 3.64L299.77 3.08L303.28 3.08L303.28 3.64L303.05 3.64L303.05 3.64Q302.50 3.64 302.33 3.73L302.33 3.73L302.33 3.73Q302.20 3.81 302.20 4.28L302.20 4.28L302.20 11.22L302.20 11.22Q302.20 11.68 302.31 11.77L302.31 11.77L302.31 11.77Q302.42 11.87 302.95 11.87L302.95 11.87L303.50 11.87L303.51 12.41L299.93 12.41L299.91 11.87L300.28 11.87L300.28 11.87Q300.84 11.87 300.95 11.77L300.95 11.77L300.95 11.77Q301.06 11.67 301.06 11.25L301.06 11.25L301.06 4.14L301.06 4.14Q301.06 3.77 300.96 3.71L300.96 3.71L300.96 3.71Q300.85 3.64 300.34 3.64L300.34 3.64ZM311.26 3.64L311.25 3.08L313.42 3.08L319.16 10.48L319.16 4.14L319.16 4.14Q319.16 3.81 319.00 3.72L319.00 3.72L319.00 3.72Q318.85 3.64 318.39 3.64L318.39 3.64L317.90 3.64L317.93 3.08L320.91 3.08L320.91 3.64L320.58 3.64L320.58 3.64Q320.12 3.64 319.97 3.75L319.97 3.75L319.97 3.75Q319.82 3.86 319.82 4.25L319.82 4.25L319.82 12.32L319.82 12.47L319.82 12.47Q319.82 12.52 319.81 12.57L319.81 12.57L319.81 12.57Q319.79 12.61 319.76 12.64L319.76 12.64L319.76 12.64Q319.74 12.65 319.69 12.65L319.69 12.65L319.50 12.65L319.44 12.65L319.41 12.65L319.38 12.64L319.38 12.64Q319.35 12.64 319.34 12.63L319.34 12.63L319.34 12.63Q319.33 12.61 319.33 12.60L319.33 12.60L319.33 12.60Q319.33 12.58 319.31 12.57L319.31 12.57L319.31 12.57Q319.29 12.54 319.26 12.50L319.26 12.50L319.26 12.50Q319.25 12.48 319.22 12.45L319.22 12.45L319.22 12.45Q319.20 12.41 319.19 12.40L319.19 12.40L313.09 4.56L313.15 11.22L313.15 11.22Q313.15 11.67 313.32 11.77L313.32 11.77L313.32 11.77Q313.48 11.87 314.19 11.87L314.19 11.87L314.43 11.87L314.43 12.41L311.49 12.41L311.49 11.87L311.91 11.87L311.91 11.87Q312.29 11.87 312.40 11.76L312.40 11.76L312.40 11.76Q312.49 11.66 312.50 11.25L312.50 11.25L312.50 3.80L312.35 3.64L311.26 3.64Z"></path></g></svg>