<svg data-v-fde0c5aa="" xmlns="http://www.w3.org/2000/svg" viewBox="0 0 300 300" class="font"><!----><defs data-v-fde0c5aa=""><!----></defs><rect data-v-fde0c5aa="" fill="transparent" x="0" y="0" width="300px" height="300px" class="logo-background-square"></rect><defs data-v-fde0c5aa=""><linearGradient data-v-fde0c5aa="" gradientTransform="rotate(25)" id="27a8e67e-7ee2-4b1a-836e-d5004784e394" x1="0%" y1="0%" x2="100%" y2="0%"><stop data-v-fde0c5aa="" offset="0%" stop-color="#01648B" stop-opacity="1"></stop><stop data-v-fde0c5aa="" offset="100%" stop-color="#5BD0A4" stop-opacity="1"></stop></linearGradient></defs><g data-v-fde0c5aa="" id="7e60fec7-65fb-4c1e-b301-0ef977818684" fill="url(#27a8e67e-7ee2-4b1a-836e-d5004784e394)" transform="matrix(3.408738718301929,0,0,3.408738718301929,38.32971799552379,122.08242888935096)"><path d="M0.49 13.30L4.83 13.30C6.96 13.30 8.33 12.53 8.33 10.58C8.33 8.93 7.15 8.20 5.80 8.02L5.80 7.99C7.11 7.73 7.88 6.92 7.88 5.84C7.88 5.07 7.57 4.49 7.01 4.12C6.47 3.75 5.66 3.61 4.54 3.61L0.49 3.61L0.49 4.02C1.72 4.10 1.75 4.13 1.75 4.91L1.75 12.00C1.75 12.78 1.72 12.81 0.49 12.89ZM3.14 11.73L3.14 8.33L4.14 8.33C5.88 8.33 6.83 9.20 6.83 10.68C6.83 12.36 5.68 12.81 4.48 12.81C3.36 12.81 3.14 12.60 3.14 11.73ZM3.14 7.84L3.14 4.80C3.14 4.20 3.18 4.10 4.27 4.10C5.29 4.10 6.41 4.48 6.41 5.92C6.41 7.29 5.53 7.84 4.07 7.84ZM9.56 11.48C9.56 12.53 10.26 13.47 11.58 13.47C12.39 13.47 13.22 12.92 13.66 12.63C13.86 13.15 14.08 13.47 14.57 13.47C15.09 13.47 15.69 13.31 16.23 13.05L16.14 12.71C15.95 12.75 15.64 12.78 15.43 12.73C15.18 12.67 14.94 12.40 14.94 11.52L14.94 8.13C14.94 7.32 14.76 6.27 12.64 6.27C11.06 6.27 9.81 7.10 9.81 7.87C9.81 8.32 10.33 8.53 10.60 8.53C10.89 8.53 10.98 8.37 11.05 8.13C11.35 7.10 11.93 6.76 12.49 6.76C13.03 6.76 13.68 7.04 13.68 8.16L13.68 8.75C13.33 9.11 11.97 9.46 10.86 9.81C9.86 10.12 9.56 10.82 9.56 11.48ZM10.98 11.28C10.98 10.63 11.28 10.29 12.07 10.00C12.63 9.79 13.37 9.52 13.68 9.32L13.68 11.30C13.68 12.43 12.81 12.73 12.26 12.73C11.40 12.73 10.98 12.11 10.98 11.28ZM16.65 13.30L20.06 13.30L20.06 12.89C19.07 12.82 19.01 12.80 19.01 12.08L19.01 8.81C19.01 8.46 19.04 8.26 19.15 8.04C19.45 7.49 20.08 7.03 20.82 7.03C21.77 7.03 22.29 7.56 22.29 8.78L22.29 12.08C22.29 12.80 22.25 12.82 21.24 12.89L21.24 13.30L24.65 13.30L24.65 12.89C23.66 12.82 23.60 12.80 23.60 12.08L23.60 8.50C23.60 7.08 22.83 6.27 21.55 6.27C20.51 6.27 19.87 6.78 19.00 7.34L18.80 6.27L16.72 6.62L16.72 6.97L17.25 7.04C17.61 7.10 17.70 7.17 17.70 7.67L17.70 12.08C17.70 12.80 17.65 12.82 16.65 12.89ZM25.14 13.30L28.56 13.30L28.56 12.89C27.57 12.82 27.51 12.80 27.51 12.08L27.51 9.74L27.54 9.74C28.11 10.65 29.11 11.87 29.83 12.61C30.35 13.13 30.90 13.30 31.35 13.33L32.40 13.37L32.40 12.98C31.98 12.87 31.63 12.66 31.19 12.22C30.32 11.37 29.23 10.04 28.70 9.28C28.63 9.18 28.60 9.11 28.74 8.96C29.41 8.19 29.86 7.78 30.34 7.43C30.81 7.08 31.16 6.92 31.98 6.83L31.98 6.44L30.53 6.44C30.06 6.44 29.93 6.51 29.65 6.85C29.25 7.34 27.86 9.07 27.54 9.55L27.51 9.55L27.51 3.00L27.41 2.91L25.21 3.26L25.21 3.61L25.75 3.67C26.11 3.71 26.19 3.78 26.19 4.31L26.19 12.08C26.19 12.80 26.15 12.82 25.14 12.89ZM35.84 13.30L39.54 13.30L39.54 12.89C38.95 12.84 38.63 12.84 38.53 12.67C38.49 12.61 38.49 12.60 38.49 12.00L38.49 8.74L39.45 8.74C40.29 8.74 40.94 9.00 41.17 9.95C41.27 10.35 41.43 11.45 41.58 12.10C41.79 12.99 42.32 13.30 43.15 13.30L44.28 13.30L44.28 12.89C43.19 12.78 42.97 12.00 42.84 11.05C42.67 9.80 42.42 8.86 40.94 8.50L40.94 8.47C42.25 8.22 43.22 7.34 43.22 6.01C43.22 4.66 42.38 3.61 39.93 3.61L35.84 3.61L35.84 4.02C37.07 4.10 37.10 4.13 37.10 4.91L37.10 12.00C37.10 12.78 37.07 12.81 35.84 12.89ZM38.49 8.25L38.49 4.80C38.49 4.21 38.58 4.10 39.51 4.10C40.54 4.10 41.72 4.48 41.72 6.13C41.72 7.60 40.95 8.25 39.59 8.25ZM44.77 9.87C44.77 12.14 45.88 13.47 48.13 13.47C50.39 13.47 51.49 12.14 51.49 9.87C51.49 7.60 50.39 6.27 48.13 6.27C45.88 6.27 44.77 7.60 44.77 9.87ZM46.23 9.87C46.23 7.94 46.84 6.76 48.13 6.76C49.42 6.76 50.04 7.94 50.04 9.87C50.04 11.80 49.42 12.98 48.13 12.98C46.84 12.98 46.23 11.80 46.23 9.87ZM52.85 9.87C52.85 12.14 53.96 13.47 56.21 13.47C58.46 13.47 59.57 12.14 59.57 9.87C59.57 7.60 58.46 6.27 56.21 6.27C53.96 6.27 52.85 7.60 52.85 9.87ZM54.31 9.87C54.31 7.94 54.92 6.76 56.21 6.76C57.50 6.76 58.11 7.94 58.11 9.87C58.11 11.80 57.50 12.98 56.21 12.98C54.92 12.98 54.31 11.80 54.31 9.87ZM60.68 7.00L61.68 7.00L61.68 11.87C61.68 13.30 62.75 13.47 63.24 13.47C63.95 13.47 64.62 13.10 65.03 12.85L64.92 12.56C64.58 12.70 64.27 12.74 63.92 12.74C63.45 12.74 63.00 12.40 63.00 11.34L63.00 7.00L64.81 7.00L64.81 6.44L63.00 6.44L63.00 4.68L62.59 4.68L61.74 6.44L60.68 6.44Z"></path></g><!----><!----></svg>